<svg xmlns="http://www.w3.org/2000/svg" viewBox="0 0 533.5 544.3">
  <path fill="#4285f4" d="M533.5 278.4c0-17.4-1.4-34.1-4.1-50.4H272v95.3h146.9c-6.4 34.7-25.1 64.1-53.5 83.7v69.5h86.5c50.6-46.6 81.6-115.3 81.6-198.1z"/>
  <path fill="#34a853" d="M272 544.3c72.6 0 133.6-24.1 178.1-65.4l-86.5-69.5c-24.1 16.2-54.9 25.8-91.6 25.8-70.5 0-130.3-47.6-151.7-111.6H30.9v70.1C75 477.3 167.1 544.3 272 544.3z"/>
  <path fill="#fbbc04" d="M120.3 323.6c-10.4-30.7-10.4-63.7 0-94.4V159H30.9c-41.6 82.9-41.6 180.4 0 263.3l89.4-69.7z"/>
  <path fill="#ea4335" d="M272 107.7c39.5-.6 77.4 14.3 106.3 41.6l79.2-79.2C411.5 24.5 345.4-1.2 272 0 167.1 0 75 67 30.9 159l89.4 69.7C141.7 155.3 201.5 107.7 272 107.7z"/>
</svg>
